<svg xmlns="http://www.w3.org/2000/svg" width="780" height="560" viewBox="0 0 780 560">
  <rect x="0" y="0" width="780" height="560" fill="white"/>
  <text x="390" y="24" text-anchor="middle" font-family="Inter,Arial" font-size="16">Software & Ownership Stack (OS‑agnostic)</text><rect x="80" y="40" width="620" height="60" rx="10" ry="10" fill="none" stroke="#111" stroke-width="2"/><text x="390" y="70.0" text-anchor="middle" dominant-baseline="middle" font-family="Inter,Arial" font-size="14">Apps</text><rect x="80" y="108" width="620" height="60" rx="10" ry="10" fill="none" stroke="#111" stroke-width="2"/><text x="390" y="138.0" text-anchor="middle" dominant-baseline="middle" font-family="Inter,Arial" font-size="14">Android Container (Waydroid) — optional</text><rect x="80" y="176" width="620" height="60" rx="10" ry="10" fill="none" stroke="#111" stroke-width="2"/><text x="390" y="206.0" text-anchor="middle" dominant-baseline="middle" font-family="Inter,Arial" font-size="14">OS (Linux distro / BlogposterOS / postmarketOS)</text><rect x="80" y="244" width="620" height="60" rx="10" ry="10" fill="none" stroke="#111" stroke-width="2"/><text x="390" y="274.0" text-anchor="middle" dominant-baseline="middle" font-family="Inter,Arial" font-size="14">upx‑agent (permissions, firmware, inventory)</text><rect x="80" y="312" width="620" height="60" rx="10" ry="10" fill="none" stroke="#111" stroke-width="2"/><text x="390" y="342.0" text-anchor="middle" dominant-baseline="middle" font-family="Inter,Arial" font-size="14">UPX HAL (drivers binding & API)</text><rect x="80" y="380" width="620" height="60" rx="10" ry="10" fill="none" stroke="#111" stroke-width="2"/><text x="390" y="410.0" text-anchor="middle" dominant-baseline="middle" font-family="Inter,Arial" font-size="14">Kernel Drivers (I²C/SPI/UART/USB/PCIe/MIPI)</text><rect x="80" y="448" width="620" height="60" rx="10" ry="10" fill="none" stroke="#111" stroke-width="2"/><text x="390" y="478.0" text-anchor="middle" dominant-baseline="middle" font-family="Inter,Arial" font-size="14">Backplane & UPX‑Edge</text><rect x="80" y="516" width="620" height="60" rx="10" ry="10" fill="none" stroke="#111" stroke-width="2"/><text x="390" y="546.0" text-anchor="middle" dominant-baseline="middle" font-family="Inter,Arial" font-size="14">Modules: CM / RFM / DM / CAM / EPM / AUX</text>
</svg>