<svg xmlns="http://www.w3.org/2000/svg" width="900" height="360" viewBox="0 0 900 360">
  <rect x="0" y="0" width="900" height="360" fill="white"/>
  
<text x="450" y="28" text-anchor="middle" font-family="Inter,Arial" font-size="16">UPX‑Edge — Signal Groups (illustrative)</text>
<rect x="100" y="60" width="700" height="200" rx="14" ry="14" fill="none" stroke="#111" stroke-width="3"/>

<rect x="120" y="80" width="120" height="160" rx="8" ry="8" fill="none" stroke="#111" stroke-width="2"/>
<text x="180" y="160" text-anchor="middle" font-family="Inter,Arial" font-size="12">Power & GND</text>

<rect x="260" y="80" width="160" height="70" rx="8" ry="8" fill="none" stroke="#111" stroke-width="2"/>
<text x="340" y="120" text-anchor="middle" font-family="Inter,Arial" font-size="12">MIPI‑DSI (4‑lane)</text>

<rect x="260" y="170" width="160" height="70" rx="8" ry="8" fill="none" stroke="#111" stroke-width="2"/>
<text x="340" y="210" text-anchor="middle" font-family="Inter,Arial" font-size="12">MIPI‑CSI‑2 (2×4‑lane)</text>

<rect x="440" y="80" width="140" height="70" rx="8" ry="8" fill="none" stroke="#111" stroke-width="2"/>
<text x="510" y="120" text-anchor="middle" font-family="Inter,Arial" font-size="12">PCIe x1/x2</text>

<rect x="440" y="170" width="140" height="70" rx="8" ry="8" fill="none" stroke="#111" stroke-width="2"/>
<text x="510" y="210" text-anchor="middle" font-family="Inter,Arial" font-size="12">USB 3.x + 2.0</text>

<rect x="600" y="80" width="180" height="70" rx="8" ry="8" fill="none" stroke="#111" stroke-width="2"/>
<text x="690" y="120" text-anchor="middle" font-family="Inter,Arial" font-size="12">Control: I²C/SPI/UART/GPIO</text>

<rect x="600" y="170" width="180" height="70" rx="8" ry="8" fill="none" stroke="#111" stroke-width="2"/>
<text x="690" y="210" text-anchor="middle" font-family="Inter,Arial" font-size="12">Audio + Debug</text>

</svg>