<svg xmlns="http://www.w3.org/2000/svg" width="880" height="580" viewBox="0 0 880 580">
  <rect x="0" y="0" width="880" height="580" fill="white"/>
  
<text x="440" y="28" text-anchor="middle" font-family="Inter,Arial" font-size="16">Hazardous Module Enable Flow (UPX‑LASER example)</text>

<rect x="120" y="60" width="640" height="70" rx="12" ry="12" fill="none" stroke="#111" stroke-width="2"/>
<text x="440" y="95" text-anchor="middle" font-family="Inter,Arial" font-size="14">Owner requests to enable module</text>

<rect x="120" y="150" width="640" height="70" rx="12" ry="12" fill="none" stroke="#111" stroke-width="2"/>
<text x="440" y="185" text-anchor="middle" font-family="Inter,Arial" font-size="14">upx‑agent reads Manifest (safety_class, power, interlocks)</text>

<rect x="120" y="240" width="640" height="70" rx="12" ry="12" fill="none" stroke="#111" stroke-width="2"/>
<text x="440" y="275" text-anchor="middle" font-family="Inter,Arial" font-size="14">Check Safety Class: Hazardous → require owner presence & PIN</text>

<rect x="120" y="330" width="640" height="70" rx="12" ry="12" fill="none" stroke="#111" stroke-width="2"/>
<text x="440" y="365" text-anchor="middle" font-family="Inter,Arial" font-size="14">Verify hardware interlock closed + temperature within limits</text>

<rect x="120" y="420" width="640" height="70" rx="12" ry="12" fill="none" stroke="#111" stroke-width="2"/>
<text x="440" y="455" text-anchor="middle" font-family="Inter,Arial" font-size="14">Backplane arms power (enable gate), monitor current & faults</text>

<rect x="120" y="510" width="640" height="40" rx="10" ry="10" fill="none" stroke="#111" stroke-width="2"/>
<text x="440" y="535" text-anchor="middle" font-family="Inter,Arial" font-size="14">If fault/overtemp: hard‑cut power; log and alert</text>
<line x1="440" y1="130" x2="440" y2="150" stroke="#111" stroke-width="2"/><polygon points="440,150 432,138 448,138" fill="#111"/><line x1="440" y1="220" x2="440" y2="240" stroke="#111" stroke-width="2"/><polygon points="440,240 432,228 448,228" fill="#111"/><line x1="440" y1="310" x2="440" y2="330" stroke="#111" stroke-width="2"/><polygon points="440,330 432,318 448,318" fill="#111"/><line x1="440" y1="400" x2="440" y2="420" stroke="#111" stroke-width="2"/><polygon points="440,420 432,408 448,408" fill="#111"/>
</svg>