<svg xmlns="http://www.w3.org/2000/svg" width="820" height="260" viewBox="0 0 820 260">
  <rect x="0" y="0" width="820" height="260" fill="white"/>
  <text x="410" y="24" text-anchor="middle" font-family="Inter,Arial" font-size="16">Display FPC — 15‑pin variant (outline)</text><rect x="60" y="90" width="40" height="40" rx="6" ry="6" fill="none" stroke="#111" stroke-width="1.5"/><text x="80" y="114" text-anchor="middle" font-family="Inter,Arial" font-size="10">DSI_D0_P</text><text x="80" y="148" text-anchor="middle" font-family="Inter,Arial" font-size="10">Pin 1</text><rect x="108" y="90" width="40" height="40" rx="6" ry="6" fill="none" stroke="#111" stroke-width="1.5"/><text x="128" y="114" text-anchor="middle" font-family="Inter,Arial" font-size="10">DSI_D0_N</text><text x="128" y="148" text-anchor="middle" font-family="Inter,Arial" font-size="10">Pin 2</text><rect x="156" y="90" width="40" height="40" rx="6" ry="6" fill="none" stroke="#111" stroke-width="1.5"/><text x="176" y="114" text-anchor="middle" font-family="Inter,Arial" font-size="10">DSI_CLK_P</text><text x="176" y="148" text-anchor="middle" font-family="Inter,Arial" font-size="10">Pin 3</text><rect x="204" y="90" width="40" height="40" rx="6" ry="6" fill="none" stroke="#111" stroke-width="1.5"/><text x="224" y="114" text-anchor="middle" font-family="Inter,Arial" font-size="10">DSI_CLK_N</text><text x="224" y="148" text-anchor="middle" font-family="Inter,Arial" font-size="10">Pin 4</text><rect x="252" y="90" width="40" height="40" rx="6" ry="6" fill="none" stroke="#111" stroke-width="1.5"/><text x="272" y="114" text-anchor="middle" font-family="Inter,Arial" font-size="10">DSI_D1_P</text><text x="272" y="148" text-anchor="middle" font-family="Inter,Arial" font-size="10">Pin 5</text><rect x="300" y="90" width="40" height="40" rx="6" ry="6" fill="none" stroke="#111" stroke-width="1.5"/><text x="320" y="114" text-anchor="middle" font-family="Inter,Arial" font-size="10">DSI_D1_N</text><text x="320" y="148" text-anchor="middle" font-family="Inter,Arial" font-size="10">Pin 6</text><rect x="348" y="90" width="40" height="40" rx="6" ry="6" fill="none" stroke="#111" stroke-width="1.5"/><text x="368" y="114" text-anchor="middle" font-family="Inter,Arial" font-size="10">DSI_D2_P</text><text x="368" y="148" text-anchor="middle" font-family="Inter,Arial" font-size="10">Pin 7</text><rect x="396" y="90" width="40" height="40" rx="6" ry="6" fill="none" stroke="#111" stroke-width="1.5"/><text x="416" y="114" text-anchor="middle" font-family="Inter,Arial" font-size="10">DSI_D2_N</text><text x="416" y="148" text-anchor="middle" font-family="Inter,Arial" font-size="10">Pin 8</text><rect x="444" y="90" width="40" height="40" rx="6" ry="6" fill="none" stroke="#111" stroke-width="1.5"/><text x="464" y="114" text-anchor="middle" font-family="Inter,Arial" font-size="10">DSI_D3_P</text><text x="464" y="148" text-anchor="middle" font-family="Inter,Arial" font-size="10">Pin 9</text><rect x="492" y="90" width="40" height="40" rx="6" ry="6" fill="none" stroke="#111" stroke-width="1.5"/><text x="512" y="114" text-anchor="middle" font-family="Inter,Arial" font-size="10">DSI_D3_N</text><text x="512" y="148" text-anchor="middle" font-family="Inter,Arial" font-size="10">Pin 10</text><rect x="540" y="90" width="40" height="40" rx="6" ry="6" fill="none" stroke="#111" stroke-width="1.5"/><text x="560" y="114" text-anchor="middle" font-family="Inter,Arial" font-size="10">I2C_SCL</text><text x="560" y="148" text-anchor="middle" font-family="Inter,Arial" font-size="10">Pin 11</text><rect x="588" y="90" width="40" height="40" rx="6" ry="6" fill="none" stroke="#111" stroke-width="1.5"/><text x="608" y="114" text-anchor="middle" font-family="Inter,Arial" font-size="10">I2C_SDA</text><text x="608" y="148" text-anchor="middle" font-family="Inter,Arial" font-size="10">Pin 12</text><rect x="636" y="90" width="40" height="40" rx="6" ry="6" fill="none" stroke="#111" stroke-width="1.5"/><text x="656" y="114" text-anchor="middle" font-family="Inter,Arial" font-size="10">RESET#</text><text x="656" y="148" text-anchor="middle" font-family="Inter,Arial" font-size="10">Pin 13</text><rect x="684" y="90" width="40" height="40" rx="6" ry="6" fill="none" stroke="#111" stroke-width="1.5"/><text x="704" y="114" text-anchor="middle" font-family="Inter,Arial" font-size="10">VDD_IO</text><text x="704" y="148" text-anchor="middle" font-family="Inter,Arial" font-size="10">Pin 14</text><rect x="732" y="90" width="40" height="40" rx="6" ry="6" fill="none" stroke="#111" stroke-width="1.5"/><text x="752" y="114" text-anchor="middle" font-family="Inter,Arial" font-size="10">GND</text><text x="752" y="148" text-anchor="middle" font-family="Inter,Arial" font-size="10">Pin 15</text>
</svg>