<svg xmlns="http://www.w3.org/2000/svg" width="880" height="240" viewBox="0 0 880 240">
  <rect rx="24" ry="24" x="10" y="10" width="860" height="220" fill="none" stroke="#000" stroke-width="12"/>
  <g transform="translate(60,40)">
    <!-- U -->
    <path d="M0,0 L0,120 A40,40 0 0 0 40,160 L80,160 A40,40 0 0 0 120,120 L120,0" fill="none" stroke="#000" stroke-width="18" stroke-linecap="round"/>
    <!-- P -->
    <path d="M170,0 L170,160 M170,0 L250,0 A40,40 0 0 1 250,80 L170,80" fill="none" stroke="#000" stroke-width="18" stroke-linecap="round"/>
    <!-- X -->
    <path d="M310,0 L400,160 M400,0 L310,160" fill="none" stroke="#000" stroke-width="18" stroke-linecap="round"/>
  </g>
  <g transform="translate(460,32)">
    <rect x="0" y="0" width="320" height="176" rx="28" ry="28" fill="none" stroke="#000" stroke-width="12"/>
    <circle cx="160" cy="152" r="6" fill="#000"/>
  </g>
  <g transform="translate(800,32)">
    <circle cx="0" cy="0" r="0" fill="none"/>
  </g>
</svg>
